<?xml version="1.0" standalone="no"?>
<!DOCTYPE svg PUBLIC "-//W3C//DTD SVG 20010904//EN"
 "http://www.w3.org/TR/2001/REC-SVG-20010904/DTD/svg10.dtd">
<svg version="1.0" xmlns="http://www.w3.org/2000/svg"
 width="100.000000pt" height="100.000000pt" viewBox="0 0 100.000000 100.000000"
 preserveAspectRatio="xMidYMid meet">

<g transform="translate(0.000000,100.000000) scale(0.100000,-0.100000)"
fill="#000000" stroke="none">
<path d="M422 951 c-22 -23 -38 -29 -85 -34 -92 -9 -111 -40 -57 -92 30 -29
54 -71 65 -117 6 -24 2 -29 -43 -52 -68 -34 -146 -116 -183 -191 -74 -151 -36
-313 87 -365 124 -54 464 -54 588 0 166 71 166 328 0 480 -31 28 -73 60 -93
71 l-36 20 42 -5 c23 -2 55 -13 72 -25 34 -24 51 -27 51 -7 0 19 -57 66 -80
66 -10 0 -22 5 -26 11 -7 12 55 8 104 -7 38 -11 27 25 -13 42 -49 20 -82 17
-143 -11 l-53 -24 7 37 c4 20 21 63 38 94 41 76 32 94 -47 90 -46 -2 -63 2
-93 23 -48 32 -69 32 -102 -4z m87 -37 c26 -21 39 -25 76 -22 25 2 45 1 45 -2
0 -9 -83 -70 -95 -70 -7 0 -20 9 -30 20 -23 25 -63 25 -95 0 -30 -24 -49 -25
-78 -4 -37 26 -28 44 23 44 36 0 51 6 77 30 18 16 36 30 40 30 3 0 20 -12 37
-26z m-22 -114 c29 -23 55 -25 85 -9 20 11 21 9 14 -21 -3 -18 -6 -45 -6 -60
0 -22 -6 -30 -31 -39 -34 -12 -101 -14 -135 -5 -14 4 -24 16 -27 37 -4 18 -9
42 -13 55 -5 16 -2 22 9 22 8 0 25 9 38 20 30 24 35 24 66 0z m199 -186 c66
-39 149 -134 174 -201 26 -70 23 -163 -7 -215 -39 -67 -151 -98 -353 -98 -136
0 -234 15 -290 43 -148 74 -104 334 77 458 49 34 60 36 168 24 42 -5 72 -2
100 8 48 18 75 14 131 -19z"/>
<path d="M470 541 c0 -11 -9 -22 -20 -26 -30 -10 -60 -54 -60 -90 0 -37 21
-60 71 -76 73 -23 87 -31 93 -52 9 -37 -19 -67 -63 -67 -38 0 -61 16 -74 53
-4 9 -14 17 -23 17 -13 0 -15 -6 -10 -27 7 -31 49 -73 72 -73 8 0 14 -9 14
-20 0 -13 7 -20 20 -20 13 0 20 7 20 20 0 13 7 20 19 20 25 0 71 55 71 84 0
38 -37 74 -92 91 -61 18 -78 31 -78 59 0 31 19 46 56 46 23 0 38 -8 52 -25 11
-14 25 -25 31 -25 22 0 10 34 -24 66 -19 18 -35 40 -35 48 0 9 -9 16 -20 16
-13 0 -20 -7 -20 -19z"/>
</g>
</svg>
