<?xml version="1.0" standalone="no"?>
<!DOCTYPE svg PUBLIC "-//W3C//DTD SVG 20010904//EN"
 "http://www.w3.org/TR/2001/REC-SVG-20010904/DTD/svg10.dtd">
<svg version="1.0" xmlns="http://www.w3.org/2000/svg"
 width="100.000000pt" height="100.000000pt" viewBox="0 0 100.000000 100.000000"
 preserveAspectRatio="xMidYMid meet">

<g transform="translate(0.000000,100.000000) scale(0.100000,-0.100000)"
fill="#000000" stroke="none">
<path d="M436 833 l-96 -108 60 -3 60 -3 0 -39 0 -40 -180 0 -180 0 0 -30 c0
-27 -3 -30 -30 -30 l-30 0 0 -260 0 -260 430 0 430 0 0 30 c0 28 2 30 40 30
l40 0 0 260 0 260 -180 0 -180 0 0 40 0 39 60 3 60 3 -96 108 c-52 59 -99 107
-104 107 -5 0 -52 -48 -104 -107z m164 -10 l51 -58 -35 -3 -36 -3 0 -60 0 -59
-40 0 -40 0 0 59 0 60 -36 3 -35 3 51 58 c28 31 55 57 60 57 5 0 32 -26 60
-57z m-420 -231 c0 -10 -22 -32 -32 -32 -4 0 -8 9 -8 20 0 13 7 20 20 20 11 0
20 -4 20 -8z m685 -22 c8 -16 29 -37 45 -45 l30 -16 0 -129 0 -129 -30 -16
c-16 -8 -37 -29 -45 -45 l-16 -30 -309 0 -309 0 -16 30 c-8 16 -29 37 -45 45
l-30 16 0 129 0 129 30 16 c16 8 37 29 45 45 l16 30 309 0 309 0 16 -30z m75
10 c0 -23 -10 -26 -28 -8 -18 18 -15 28 8 28 13 0 20 -7 20 -20z m-840 -250
l0 -210 380 0 c247 0 380 -4 380 -10 0 -6 -137 -10 -390 -10 l-390 0 0 220 c0
140 4 220 10 220 6 0 10 -77 10 -210z m68 -142 c18 -18 15 -28 -8 -28 -13 0
-20 7 -20 20 0 23 10 26 28 8z m772 -8 c0 -13 -7 -20 -20 -20 -23 0 -26 10 -8
28 18 18 28 15 28 -8z"/>
<path d="M475 566 c-130 -58 -153 -245 -42 -343 88 -77 216 -42 268 72 71 156
-79 336 -226 271z m125 -45 c42 -22 80 -90 80 -141 0 -78 -71 -160 -140 -160
-69 0 -140 82 -140 160 0 78 71 160 140 160 14 0 41 -8 60 -19z"/>
<path d="M216 424 c-30 -30 -9 -84 33 -84 22 0 51 30 51 53 0 21 -27 47 -50
47 -10 0 -26 -7 -34 -16z m44 -34 c0 -5 -4 -10 -10 -10 -5 0 -10 5 -10 10 0 6
5 10 10 10 6 0 10 -4 10 -10z"/>
<path d="M796 424 c-30 -30 -9 -84 33 -84 22 0 51 30 51 53 0 40 -55 61 -84
31z m44 -34 c0 -5 -4 -10 -10 -10 -5 0 -10 5 -10 10 0 6 5 10 10 10 6 0 10 -4
10 -10z"/>
</g>
</svg>
